<svg width="1024" height="1024" viewBox="0 0 1024 1024" fill="none" xmlns="http://www.w3.org/2000/svg">
  <defs>
    <linearGradient id="bg" x1="120" y1="110" x2="910" y2="920" gradientUnits="userSpaceOnUse">
      <stop offset="0%" stop-color="#0A84FF"/>
      <stop offset="100%" stop-color="#18D7E8"/>
    </linearGradient>
    <linearGradient id="flowFade" x1="560" y1="700" x2="900" y2="700" gradientUnits="userSpaceOnUse">
      <stop offset="0%" stop-color="#FFFFFF" stop-opacity="0.95"/>
      <stop offset="65%" stop-color="#FFFFFF" stop-opacity="0.82"/>
      <stop offset="100%" stop-color="#FFFFFF" stop-opacity="0"/>
    </linearGradient>
    <linearGradient id="accentDot" x1="0" y1="0" x2="1" y2="1">
      <stop offset="0%" stop-color="#2BF0FF"/>
      <stop offset="100%" stop-color="#12D5E6"/>
    </linearGradient>
    <filter id="softGlow" x="-30%" y="-30%" width="160%" height="160%">
      <feGaussianBlur stdDeviation="8" result="blur"/>
      <feColorMatrix in="blur" type="matrix" values="1 0 0 0 0
                                                       0 1 0 0 0
                                                       0 0 1 0 0
                                                       0 0 0 0.12 0"/>
    </filter>
  </defs>

  <!-- background -->
  <rect x="24" y="24" width="976" height="976" rx="178" fill="url(#bg)"/>

  <!-- plane / A -->
  <g transform="translate(0,8)">
    <path d="M512 236 L760 650
             Q768 664 756 672
             Q744 681 730 669
             L512 498
             L294 669
             Q280 681 268 672
             Q256 664 264 650
             L512 236 Z"
          fill="#FFFFFF"/>
    <path d="M512 236 L558 493 L512 458 L466 493 Z" fill="#CFE7FF" opacity="0.9"/>
  </g>

  <!-- wifi to tok flow -->
  <g transform="translate(0,28)" stroke-linecap="round" fill="none">
    <path d="M330 640 Q428 548 526 640 Q564 676 608 676" stroke="#FFFFFF" stroke-width="34"/>
    <path d="M376 706 Q450 636 524 706 Q548 728 584 728" stroke="#FFFFFF" stroke-width="28" opacity="0.96"/>
    <circle cx="496" cy="770" r="38" fill="#FFFFFF"/>

    <!-- flowing tok lines -->
    <path d="M608 676 C660 676 712 676 822 676" stroke="url(#flowFade)" stroke-width="28"/>
    <path d="M584 728 C644 728 696 728 786 728" stroke="url(#flowFade)" stroke-width="24"/>
    <path d="M610 792 C676 792 726 792 804 792" stroke="url(#flowFade)" stroke-width="22" opacity="0.9"/>
    <path d="M760 676 C814 676 852 676 900 676" stroke="url(#flowFade)" stroke-width="18" opacity="0.7"/>
    <path d="M770 728 C812 728 846 728 886 728" stroke="url(#flowFade)" stroke-width="16" opacity="0.55"/>

    <!-- packet dots -->
    <circle cx="648" cy="676" r="18" fill="#FFFFFF"/>
    <circle cx="618" cy="728" r="16" fill="#FFFFFF"/>
    <circle cx="794" cy="728" r="13" fill="url(#accentDot)"/>
    <circle cx="828" cy="792" r="13" fill="url(#accentDot)"/>
    <circle cx="774" cy="676" r="14" fill="#FFFFFF" opacity="0.92"/>
  </g>
</svg>
